<svg width="32" height="32" viewBox="0 0 32 32" fill="#AFB1C0" xmlns="http://www.w3.org/2000/svg">
  <path d="M5.319 29c.119 1.869 1.356 3 3.25 3h14.725c2.156 0 3.293-1.106 3.425-3.25.35-5.775 1.2-19.856 1.262-21.006H4.056c0 .25.838 14.493 1.263 21.256ZM27.956 2.056c-1.694-.012-3.381-.025-5.069.006A2.257 2.257 0 0 0 20.645 0h-9.288C10.188 0 9.213.9 9.12 2.063a207.516 207.516 0 0 0-5.22-.008c-.913.013-1.575.519-1.794 1.319-.381 1.394.463 2.544 1.907 2.55 4.006.013 8.006.006 12.006.006h11.925c1.294 0 2.037-.725 2.044-1.931.006-1.206-.744-1.938-2.032-1.944Z"/>
</svg>
