<svg width="32" height="32" viewBox="0 0 32 32" fill="#fff" xmlns="http://www.w3.org/2000/svg">
  <g clip-path="url(%23clip0_40_145)">
    <path d="m26.188 13.887-.02-.018L18.107 5.8S8.281 15.625 3.544 20.462c-.588.6-1.038 1.438-1.3 2.25-.775 2.375-1.419 4.8-2.138 7.194-.194.644-.156 1.213.35 1.688.475.45 1.013.475 1.625.287 2.288-.687 4.588-1.337 6.881-1.993 1.207-.344 2.22-.982 3.107-1.875 4.512-4.525 14.118-14.126 14.118-14.126Zm4.706-10.025-2.756-2.756a3.765 3.765 0 0 0-5.332 0l-3.125 3.125 8.088 8.088 3.125-3.125a3.765 3.765 0 0 0 0-5.332Z"/>
  </g>
</svg>
